# This file uses centimeters as units for non-parametric coordinates.

mtllib PrinterLid.mtl
g default
v -2.254417 3.123582 3.352732
v -2.164574 3.205413 3.302395
v -2.050550 3.309269 3.456627
v -2.087764 3.275373 3.578151
v 0.667411 6.611568 -0.500000
v 0.667411 6.611568 -1.297803
v 1.577886 6.608515 -1.047426
v -2.791868 3.865310 3.310431
v -2.669442 3.976819 3.476028
v 0.415540 6.888099 -1.297803
v 1.319676 6.928441 -1.297803
v 1.327565 6.603223 -1.297803
v -2.761139 4.014674 3.578151
v -2.927792 3.862883 3.352732
v 1.569971 6.934873 1.047426
v 1.496661 6.932990 -1.224469
v 1.319676 6.928441 1.297803
v 1.504569 6.606965 -1.224469
v 1.569971 6.934873 -1.047426
v 0.334969 6.486332 -0.500000
v 0.535851 6.597355 -0.500000
v 0.987473 6.079780 -0.500000
v 0.833229 5.939291 -0.500000
v 0.987473 6.079780 0.500000
v 0.833229 5.939291 0.500000
v 1.078969 6.159717 3.352732
v 0.989126 6.077886 3.302395
v 0.989126 6.077886 -3.302395
v 1.078969 6.159717 -3.352732
v 1.327565 6.603223 1.297803
v 0.334969 6.486332 0.500000
v 1.496661 6.932990 1.224469
v 0.415540 6.888099 1.297803
v 0.238941 6.747227 3.578151
v 0.405594 6.899018 3.352732
v 0.405594 6.899018 -3.352732
v 0.238941 6.747227 -3.578151
v -2.761139 4.014674 -3.578151
v -2.927792 3.862883 -3.352732
v 1.077277 6.161575 -0.500000
v 1.567738 6.608301 -0.500000
v 1.567738 6.608301 0.500000
v 1.077277 6.161575 0.500000
v 0.535851 6.597355 0.500000
v 1.577886 6.608515 1.047426
v 0.875102 5.974030 3.456627
v 0.912316 6.007925 3.578151
v 0.667411 6.611568 1.297803
v 0.667411 6.611568 0.500000
v 1.504569 6.606965 1.224469
v 0.390519 6.763911 3.310431
v 0.390519 6.763911 -3.310431
v -1.656985 4.898992 -3.476028
v 0.268093 6.652403 -3.476028
v 0.268093 6.652403 3.476028
v -1.656985 4.898992 3.476028
v -2.380273 4.240201 3.476028
v -1.847449 3.655212 3.459163
v -1.772971 3.723048 3.459163
v -2.305795 4.308038 3.476028
v -1.731462 4.831155 3.476028
v -1.198638 4.246165 3.459163
v -1.124160 4.314002 3.459163
v -1.124160 4.314002 -3.459163
v -2.305795 4.308038 -3.476028
v -1.731462 4.831155 -3.476028
v -1.198638 4.246165 -3.459163
v 0.912316 6.007925 -3.578151
v 0.875102 5.974030 -3.456627
v -1.772971 3.723048 -3.459163
v -1.847449 3.655212 -3.459163
v -2.380273 4.240201 -3.476028
v -2.791868 3.865310 -3.310431
v -2.164574 3.205413 -3.302395
v -2.254417 3.123582 -3.352732
v -2.669442 3.976819 -3.476028
v -2.087764 3.275373 -3.578151
v -2.050550 3.309269 -3.456627
vt 0.367125 0.000000
vt 0.367125 0.000000
vt 0.387499 0.000000
vt 0.387499 0.000000
vt 0.367125 0.250000
vt 0.387499 0.250000
vt 0.449051 0.500000
vt 0.570434 0.500000
vt 0.566242 0.750000
vt 0.479653 0.750000
vt 0.387499 0.250000
vt 0.367125 0.250000
vt 0.625000 0.250000
vt 0.625000 0.274115
vt 0.625000 0.475885
vt 0.625000 0.500000
vt 0.444507 0.250000
vt 0.569025 0.250000
vt 0.625000 0.750000
vt 0.375000 0.500000
vt 0.443693 0.500000
vt 0.427159 0.750000
vt 0.375000 0.750000
vt 0.875000 0.250000
vt 0.850885 0.250000
vt 0.850884 0.000000
vt 0.875000 0.000000
vt 0.427159 1.000000
vt 0.375000 1.000000
vt 0.632875 0.000000
vt 0.632875 0.000000
vt 0.867125 0.000000
vt 0.867125 0.000000
vt 0.625000 1.000000
vt 0.568585 1.000000
vt 0.485450 1.000000
vt 0.483668 0.923158
vt 0.625000 0.924136
vt 0.625000 0.827819
vt 0.481435 0.826842
vt 0.625000 0.774115
vt 0.625000 0.975885
vt 0.125000 0.000000
vt 0.375000 0.000000
vt 0.375000 0.250000
vt 0.125000 0.250000
vt 0.375000 0.257875
vt 0.612501 0.250000
vt 0.625000 0.257875
vt 0.625000 0.492125
vt 0.612501 0.500000
vt 0.387499 0.500000
vt 0.375000 0.492125
vt 0.457526 0.750000
vt 0.623379 0.750000
vt 0.623379 1.000000
vt 0.457526 1.000000
vt 0.443693 0.250000
vt 0.427159 0.000000
vt 0.649115 0.250000
vt 0.649115 0.000000
vt 0.612501 0.000000
vt 0.612501 0.000000
vt 0.632875 0.250000
vt 0.867125 0.250000
vt 0.767733 0.000690
vt 0.767701 0.189304
vt 0.732299 0.189304
vt 0.465049 0.500000
vt 0.612501 0.500000
vt 0.625000 0.492125
vt 0.625000 0.257875
vt 0.612501 0.250000
vt 0.465049 0.250000
vt 0.625000 0.000000
vt 0.485450 0.000000
vt 0.568585 0.000000
vt 0.632875 0.250000
vt 0.732267 0.000690
vt 0.704662 0.246308
vt 0.795338 0.246307
vt 0.795338 0.152797
vt 0.867125 0.250000
vt 0.475025 0.519928
vt 0.457526 0.000000
vt 0.623379 0.000000
vt 0.475025 0.230072
vt 0.767467 0.152797
vt 0.767467 0.000628
vt 0.732533 0.000628
vt 0.732533 0.152797
vt 0.704662 0.152797
vt 0.409648 0.250000
vt 0.409325 0.032681
vt 0.415050 0.032681
vt 0.415352 0.250000
vt 0.459344 0.250000
vt 0.459199 0.032681
vt 0.464924 0.032681
vt 0.628457 0.000000
vt 0.871543 0.000000
vt 0.872135 0.238300
vt 0.627865 0.238300
vt 0.415353 0.500000
vt 0.459344 0.500000
vt 0.128457 0.000000
vt 0.371543 0.000000
vt 0.372135 0.238300
vt 0.127865 0.238300
vt 0.625000 0.753457
vt 0.625000 0.996543
vt 0.375000 0.996543
vt 0.375000 0.753457
vt 0.625000 0.757875
vt 0.612501 0.750000
vt 0.612501 0.750000
vt 0.625000 0.757875
vt 0.628457 0.000000
vt 0.871543 0.000000
vt 0.872135 0.238300
vt 0.627865 0.238300
vt 0.128457 0.000000
vt 0.371543 0.000000
vt 0.372135 0.238300
vt 0.127865 0.238300
vt 0.625000 0.753457
vt 0.625000 0.996543
vt 0.375000 0.996543
vt 0.375000 0.753457
vt 0.132875 0.250000
vt 0.132875 0.000000
vt 0.132875 0.250000
vt 0.132875 0.000000
vt 0.375000 0.257875
vt 0.375000 0.492125
vt 0.387499 0.500000
vt 0.409648 0.500000
vt 0.387499 0.750000
vt 0.387499 0.750000
vt 0.375000 0.757875
vt 0.375000 0.757875
vt 0.464924 0.717319
vt 0.459199 0.717319
vt 0.415050 0.717319
vt 0.409325 0.717319
vn 0.673375 -0.739301 0.000000
vn 0.673375 -0.739301 0.000000
vn 0.673375 -0.739301 0.000000
vn 0.673375 -0.739301 0.000000
vn 0.508297 0.491793 -0.706947
vn 0.508297 0.491793 -0.706947
vn 0.508297 0.491793 -0.706947
vn 0.508297 0.491793 -0.706947
vn -0.000000 -0.000000 -1.000000
vn 0.081561 0.001978 -0.996666
vn 0.082325 0.001997 -0.996604
vn -0.000000 -0.000000 -1.000000
vn -0.522765 -0.476148 0.707107
vn -0.522765 -0.476148 0.707107
vn -0.522765 -0.476148 0.707107
vn -0.522765 -0.476148 0.707107
vn -0.040668 0.999173 -0.000000
vn -0.040668 0.999173 -0.000000
vn -0.040668 0.999173 -0.000000
vn -0.040668 0.999173 -0.000000
vn -0.040667 0.999173 -0.000000
vn -0.040668 0.999173 -0.000000
vn -0.040667 0.999173 -0.000000
vn -0.040668 0.999173 -0.000000
vn 0.382572 0.009279 -0.923879
vn 0.382572 0.009279 -0.923879
vn 0.000000 0.000000 -1.000000
vn 0.000000 0.000000 -1.000000
vn 0.000000 0.000000 -1.000000
vn 0.000000 0.000000 -1.000000
vn 0.923608 0.022402 -0.382683
vn 0.999186 0.024235 -0.032236
vn 0.999187 0.024235 -0.032224
vn 0.923608 0.022402 -0.382683
vn 0.673375 -0.739301 0.000000
vn 0.673375 -0.739301 0.000000
vn 0.673375 -0.739301 0.000000
vn 0.673375 -0.739301 0.000000
vn 0.673375 -0.739301 0.000000
vn 0.673375 -0.739301 0.000000
vn 0.673375 -0.739301 0.000000
vn 0.673375 -0.739301 0.000000
vn -0.003809 -0.999993 0.000000
vn -0.003809 -0.999993 0.000000
vn -0.003809 -0.999993 0.000000
vn -0.003809 -0.999993 0.000000
vn -0.003809 -0.999993 0.000000
vn -0.003809 -0.999993 0.000000
vn -0.003809 -0.999993 0.000000
vn -0.003809 -0.999993 0.000000
vn -0.003809 -0.999993 0.000000
vn -0.003809 -0.999993 0.000000
vn -0.003809 -0.999993 0.000000
vn -0.003809 -0.999993 0.000000
vn -0.739301 -0.673375 0.000000
vn -0.739301 -0.673375 0.000000
vn -0.739301 -0.673375 0.000000
vn -0.739301 -0.673375 0.000000
vn -0.673375 0.739301 0.000000
vn -0.673375 0.739301 0.000000
vn -0.673375 0.739301 0.000000
vn -0.673375 0.739301 0.000000
vn -0.673375 0.739301 0.000000
vn -0.673375 0.739301 0.000000
vn -0.673375 0.739301 0.000000
vn -0.673375 0.739301 0.000000
vn 0.673375 -0.739301 0.000000
vn 0.673375 -0.739301 0.000000
vn 0.673375 -0.739301 0.000000
vn 0.673375 -0.739301 0.000000
vn -0.483717 0.875225 0.000000
vn -0.483717 0.875225 0.000000
vn -0.483717 0.875225 0.000000
vn -0.483717 0.875225 0.000000
vn 0.000000 0.000000 1.000000
vn 0.000000 0.000000 1.000000
vn 0.000000 0.000000 1.000000
vn 0.000000 0.000000 1.000000
vn 0.999187 0.024235 0.032236
vn 0.999187 0.024235 0.032224
vn 0.673375 -0.739301 0.000000
vn 0.673375 -0.739301 0.000000
vn -0.753482 -0.657468 0.000000
vn -0.753482 -0.657468 -0.000000
vn -0.753482 -0.657468 -0.000000
vn -0.753482 -0.657468 0.000000
vn -0.753482 -0.657468 -0.000000
vn -0.753482 -0.657468 -0.000000
vn 0.673375 -0.739301 0.000000
vn 0.673375 -0.739301 0.000000
vn 0.673375 -0.739301 0.000000
vn 0.673375 -0.739301 0.000000
vn 0.673375 -0.739301 0.000000
vn 0.673375 -0.739301 0.000000
vn 0.000000 0.000000 1.000000
vn 0.000000 0.000000 1.000000
vn 0.000000 0.000000 1.000000
vn 0.000000 0.000000 1.000000
vn 0.923608 0.022401 0.382683
vn 0.923608 0.022401 0.382683
vn -0.000000 -0.000000 1.000000
vn 0.082325 0.001997 0.996604
vn 0.081561 0.001978 0.996666
vn -0.000000 -0.000000 1.000000
vn 0.382572 0.009279 0.923879
vn 0.382572 0.009279 0.923879
vn -0.536995 -0.460286 -0.706947
vn -0.536995 -0.460286 -0.706947
vn -0.536995 -0.460286 -0.706947
vn -0.536995 -0.460286 -0.706947
vn 0.522765 0.476148 0.707107
vn 0.522765 0.476148 0.707107
vn 0.522765 0.476148 0.707107
vn 0.522765 0.476148 0.707107
vn -0.753482 -0.657468 0.000000
vn -0.753482 -0.657468 0.000000
vn 0.739301 0.673375 0.000000
vn 0.739301 0.673375 0.000000
vn 0.739301 0.673375 0.000000
vn 0.739301 0.673375 0.000000
vn 0.739301 0.673375 0.000000
vn 0.739301 0.673375 0.000000
vn 0.000000 0.000000 -1.000000
vn 0.000000 0.000000 -1.000000
vn 0.000000 0.000000 -1.000000
vn 0.000000 0.000000 1.000000
vn 0.000000 0.000000 1.000000
vn 0.000000 0.000000 1.000000
vn 0.739301 0.673375 0.000000
vn 0.739301 0.673375 0.000000
vn 0.739301 0.673375 0.000000
vn 0.739301 0.673375 0.000000
vn 0.739301 0.673375 0.000000
vn 0.739301 0.673375 0.000000
vn -0.014349 0.015754 -0.999773
vn -0.014349 0.015754 -0.999773
vn -0.014349 0.015754 -0.999773
vn -0.014349 0.015754 -0.999773
vn -0.014349 0.015754 -0.999773
vn -0.014349 0.015754 -0.999773
vn -0.014349 0.015754 -0.999773
vn -0.014349 0.015754 -0.999773
vn -0.014349 0.015754 -0.999773
vn -0.014349 0.015754 -0.999773
vn -0.014349 0.015754 -0.999773
vn -0.014349 0.015754 -0.999773
vn 0.739301 0.673375 0.000000
vn 0.739301 0.673375 0.000000
vn 0.739301 0.673375 0.000000
vn 0.739301 0.673375 0.000000
vn 0.673375 -0.739301 0.000000
vn 0.673375 -0.739301 0.000000
vn 0.673375 -0.739301 0.000000
vn 0.673375 -0.739301 0.000000
vn -0.739301 -0.673375 0.000000
vn -0.739301 -0.673375 0.000000
vn -0.739301 -0.673375 0.000000
vn -0.739301 -0.673375 0.000000
vn 0.673375 -0.739301 0.000000
vn 0.673375 -0.739301 0.000000
vn 0.673375 -0.739301 0.000000
vn 0.673375 -0.739301 0.000000
vn 0.522765 0.476148 -0.707107
vn 0.522765 0.476148 -0.707107
vn 0.522765 0.476148 -0.707107
vn 0.522765 0.476148 -0.707107
vn -0.536995 -0.460286 0.706947
vn -0.536995 -0.460286 0.706947
vn -0.536995 -0.460286 0.706947
vn -0.536995 -0.460286 0.706947
vn 0.739301 0.673375 0.000000
vn 0.739301 0.673375 0.000000
vn 0.739301 0.673375 0.000000
vn 0.739301 0.673375 0.000000
vn -0.739301 -0.673375 0.000000
vn -0.739301 -0.673375 0.000000
vn -0.739301 -0.673375 0.000000
vn -0.739301 -0.673375 0.000000
vn 0.673375 -0.739301 0.000000
vn 0.673375 -0.739301 0.000000
vn 0.673375 -0.739301 0.000000
vn 0.673375 -0.739301 0.000000
vn 0.673375 -0.739301 0.000000
vn 0.673375 -0.739301 0.000000
vn 0.724784 0.688976 0.000000
vn 0.724784 0.688976 0.000000
vn 0.724784 0.688976 0.000000
vn 0.724784 0.688976 0.000000
vn -0.739301 -0.673375 0.000000
vn -0.739301 -0.673375 0.000000
vn -0.739301 -0.673375 0.000000
vn -0.739301 -0.673375 0.000000
vn 0.673375 -0.739301 0.000000
vn 0.673375 -0.739301 0.000000
vn 0.673375 -0.739301 0.000000
vn 0.673375 -0.739301 0.000000
vn 0.673375 -0.739301 0.000000
vn 0.673375 -0.739301 0.000000
vn 0.673375 -0.739301 0.000000
vn 0.673375 -0.739301 0.000000
vn 0.000000 0.000000 -1.000000
vn 0.000000 0.000000 -1.000000
vn 0.000000 0.000000 -1.000000
vn 0.000000 0.000000 -1.000000
vn 0.673375 -0.739301 0.000000
vn 0.673375 -0.739301 0.000000
vn 0.508297 0.491793 0.706947
vn 0.508297 0.491793 0.706947
vn 0.508297 0.491793 0.706947
vn 0.508297 0.491793 0.706947
vn -0.522765 -0.476148 -0.707107
vn -0.522765 -0.476148 -0.707107
vn -0.522765 -0.476148 -0.707107
vn -0.522765 -0.476148 -0.707107
vn -0.014349 0.015754 0.999773
vn -0.014349 0.015754 0.999773
vn -0.014349 0.015754 0.999773
vn -0.014349 0.015754 0.999773
vn -0.014349 0.015754 0.999773
vn -0.014349 0.015754 0.999773
vn -0.014349 0.015754 0.999773
vn -0.014349 0.015754 0.999773
vn -0.014349 0.015754 0.999773
vn -0.014349 0.015754 0.999773
vn -0.014349 0.015754 0.999773
vn -0.014349 0.015754 0.999773
s 1
g polySurface1 pCube7
usemtl blinn2SG
f 1/1/1 2/2/2 3/3/3 4/4/4
s off
f 2/2/5 8/5/6 9/6/7 3/3/8
s 2
f 10/7/9 11/8/10 12/9/11 6/10/12
s off
f 1/1/13 4/4/14 13/11/15 14/12/16
f 32/13/17 15/14/18 19/15/19 16/16/20 11/8/21 10/7/22 33/17/23 17/18/24
s 2
f 11/8/10 16/16/25 18/19/26 12/9/11
s off
f 20/20/27 21/21/28 22/22/29 23/23/30
s 3
f 16/24/31 19/25/32 7/26/33 18/27/34
s off
f 23/23/35 22/22/36 24/28/37 25/29/38
s 1
f 26/30/39 27/31/40 28/32/41 29/33/42
s off
f 50/34/43 30/35/44 48/36/45 49/37/46 42/38/47 41/39/48 5/40/49 6/10/50 12/9/51 18/19/52 7/41/53 45/42/54
f 23/43/55 25/44/56 31/45/57 20/46/58
f 14/47/59 13/11/60 34/48/61 35/49/62 36/50/63 37/51/64 38/52/65 39/53/66
f 40/54/67 41/55/68 42/56/69 43/57/70
f 21/21/71 20/20/72 31/45/73 44/58/74
f 25/44/75 24/59/76 44/58/77 31/45/78
s 3
f 15/60/79 45/61/80 7/26/33 19/25/32
s 1
f 4/4/4 3/3/3 46/62/81 47/63/82
s 5
f 51/64/83 52/65/84 28/32/85 22/66/86 21/67/87 44/68/88
s off
f 53/69/89 54/70/90 52/71/91 51/72/92 55/73/93 56/74/94
f 13/11/95 4/4/96 47/63/97 34/48/98
s 3
f 50/75/99 45/61/80 15/60/79 32/13/100
s 6
f 48/76/101 30/77/102 17/18/103 33/17/104
f 30/77/102 50/75/105 32/13/106 17/18/103
s 1
f 47/63/82 46/62/81 27/31/40 26/30/39
s off
f 46/62/107 55/73/108 51/64/109 27/31/110
f 47/63/111 26/30/112 35/78/113 34/48/114
s 5
f 51/64/83 44/68/88 24/79/115 22/66/86 28/32/85 27/31/116
s 7
f 35/78/117 26/30/118 33/80/119 10/81/120 6/82/121 36/83/122
s off
f 41/55/123 40/54/124 5/84/125
f 43/85/126 42/86/127 49/87/128
s 7
f 26/30/118 29/33/129 36/83/122 6/82/121 5/88/130 40/89/131 43/90/132 49/91/133 48/92/134 33/80/119
s off
f 9/6/135 57/93/136 58/94/137 59/95/138 60/96/139 61/97/140 62/98/141 63/99/142 56/74/143 55/73/144 46/62/145 3/3/146
f 63/100/147 64/101/148 53/102/149 56/103/150
f 65/104/151 66/105/152 61/97/153 60/96/154
f 67/106/155 62/107/156 61/108/157 66/109/158
f 64/110/159 63/111/160 62/112/161 67/113/162
f 37/51/163 36/50/164 29/114/165 68/115/166
f 54/70/167 69/116/168 28/117/169 52/71/170
f 59/118/171 70/119/172 65/120/173 60/121/174
f 71/122/175 58/123/176 57/124/177 72/125/178
s 1
f 29/114/42 28/117/41 69/116/179 68/115/180
s off
f 70/126/181 59/127/182 58/128/183 71/129/184
f 73/130/185 8/5/186 2/2/187 74/131/188
f 39/132/189 75/133/190 1/1/191 14/12/192
s 1
f 75/133/193 74/131/194 2/2/2 1/1/1
s off
f 8/134/195 73/135/196 76/136/197 72/137/198 57/93/199 9/6/200
f 77/138/201 38/52/202 37/51/203 68/115/204
s 1
f 68/115/180 69/116/179 78/139/205 77/138/206
s off
f 73/135/207 74/140/208 78/139/209 76/136/210
f 39/53/211 38/52/212 77/138/213 75/141/214
s 1
f 77/138/206 78/139/205 74/140/194 75/141/193
s off
f 78/139/215 69/116/216 54/70/217 53/69/218 64/142/219 67/143/220 66/105/221 65/104/222 70/144/223 71/145/224 72/137/225 76/136/226
